<?xml version="1.0" standalone="no"?>
<!DOCTYPE svg PUBLIC "-//W3C//DTD SVG 20010904//EN"
 "http://www.w3.org/TR/2001/REC-SVG-20010904/DTD/svg10.dtd">
<svg version="1.0" xmlns="http://www.w3.org/2000/svg"
 width="512.000000pt" height="512.000000pt" viewBox="0 0 512.000000 512.000000"
 preserveAspectRatio="xMidYMid meet">

<g transform="translate(0.000000,512.000000) scale(0.100000,-0.100000)"
fill="#000000" stroke="none">
<path d="M0 2560 l0 -2560 2560 0 2560 0 0 2560 0 2560 -2560 0 -2560 0 0
-2560z m2763 2173 c-7 -2 -19 -2 -25 0 -7 3 -2 5 12 5 14 0 19 -2 13 -5z
m-383 -63 c0 -5 -5 -10 -11 -10 -5 0 -7 5 -4 10 3 6 8 10 11 10 2 0 4 -4 4
-10z m384 -16 c28 -11 18 -27 -11 -19 -16 4 -44 11 -63 15 -34 8 -34 8 12 9
25 0 53 -2 62 -5z m-221 -31 c-7 -2 -19 -2 -25 0 -7 3 -2 5 12 5 14 0 19 -2
13 -5z m-162 -38 c-1 -15 -24 -12 -29 3 -3 9 2 13 12 10 10 -1 17 -7 17 -13z
m422 -22 c4 -3 2 -12 -4 -20 -8 -9 -36 -13 -88 -13 -42 0 -121 -5 -175 -10
-55 -5 -102 -8 -105 -5 -12 13 24 30 87 41 72 13 274 18 285 7z m-416 -50 c4
-12 -34 -29 -44 -19 -3 3 -3 12 1 21 7 18 37 17 43 -2z m418 -44 c-8 -12 -26
-11 -45 1 -13 9 -13 11 -1 19 18 11 55 -5 46 -20z m-52 -40 c38 -12 82 -37
110 -60 38 -33 47 -48 56 -92 20 -101 30 -173 41 -275 5 -57 12 -108 15 -112
3 -4 12 -43 20 -87 16 -86 78 -217 140 -299 20 -27 77 -90 126 -141 99 -102
162 -194 219 -316 49 -106 68 -185 80 -327 17 -194 -26 -378 -129 -560 -86
-151 -195 -264 -341 -353 -180 -110 -340 -158 -527 -158 -149 0 -226 17 -368
79 -66 29 -175 92 -195 112 -3 3 -34 29 -70 58 -36 29 -82 71 -101 95 -36 43
-149 213 -149 224 0 3 -14 35 -30 70 -46 97 -61 165 -67 299 -6 134 9 237 54
374 57 172 122 278 252 413 58 59 115 124 129 143 36 53 84 163 132 304 40
117 43 133 51 278 10 190 23 233 86 287 42 36 57 42 142 57 117 21 236 16 324
-13z"/>
</g>
</svg>
